<svg width="1024" height="1024" viewBox="0 0 1024 1024" fill="none" xmlns="http://www.w3.org/2000/svg">
<g clip-path="url(#clip0_145_1619)">
<path d="M855 -1V1024" stroke="#E1E4E8" stroke-width="6"/>
<path d="M684 -1V1024" stroke="#E1E4E8" stroke-width="6"/>
<path d="M513 -1V1024" stroke="#E1E4E8" stroke-width="6"/>
<path d="M342 -1V1024" stroke="#E1E4E8" stroke-width="6"/>
<path d="M171 -1V1024" stroke="#E1E4E8" stroke-width="6"/>
<path d="M1024 854L-1 854" stroke="#E1E4E8" stroke-width="6"/>
<path d="M1024 683L-1 683" stroke="#E1E4E8" stroke-width="6"/>
<path d="M1024 512L-1 512" stroke="#E1E4E8" stroke-width="6"/>
<path d="M1024 341L-1 341" stroke="#E1E4E8" stroke-width="6"/>
<path d="M1024 170L-1 170" stroke="#E1E4E8" stroke-width="6"/>
<path d="M512 280C639.566 280 743 383.634 743 511.5C743 639.366 639.566 743 512 743C384.434 743 281 639.366 281 511.5C281 383.634 384.434 280 512 280Z" stroke="#D1D5DA" stroke-width="12"/>
<circle cx="512" cy="512" r="113" stroke="#D1D5DA" stroke-width="12"/>
<circle cx="512" cy="512" r="301" stroke="#D1D5DA" stroke-width="12"/>
<path d="M305 546V412L407 478.212L305 546Z" fill="#01A2A7"/>
<path d="M407 478V344L515 410.212L407 478Z" fill="#36C5EF"/>
<path d="M515 546V412L407 478.212L515 546Z" fill="#EBB22F"/>
<path d="M407 478V344L305 410.212L407 478Z" fill="#EBB22F"/>
<path d="M515 412V277L407 343.706L515 412Z" fill="#FF4B40"/>
<path d="M720 546V412L617 478.212L720 546Z" fill="#EBB22F"/>
<path d="M617 478V344L515 410.212L617 478Z" fill="white"/>
<path d="M515 546V412L617 478.212L515 546Z" fill="#FF4B40"/>
<path d="M617 478V344L720 410.212L617 478Z" fill="#FF4B40"/>
<path d="M515 412V277L617 343.706L515 412Z" fill="#01A2A7"/>
<path d="M407 546V680L515 613.788L407 546Z" fill="#36C5EF"/>
<path d="M407 546V680L305 613.788L407 546Z" fill="#01A2A7"/>
<path d="M515 605V747L407 676.835L515 605Z" fill="#EBB22F"/>
<path d="M617 546V680L515 613.788L617 546Z" fill="#36C5EF"/>
<path d="M617 546V680L720 613.788L617 546Z" fill="#01A2A7"/>
<path d="M515 605V747L617 676.835L515 605Z" fill="#FF4B40"/>
</g>
<defs>
<clipPath id="clip0_145_1619">
<rect width="1024" height="1024" fill="white"/>
</clipPath>
</defs>
</svg>
