<svg width="515" height="684" viewBox="0 0 515 684" fill="none" xmlns="http://www.w3.org/2000/svg">
<path d="M26 294V147L139 219.635L26 294Z" fill="#01A2A7"/>
<path d="M139 222V75L261 147.635L139 222Z" fill="#36C5EF"/>
<path d="M261 294V147L139 219.635L261 294Z" fill="#EBB22F"/>
<path d="M139 222V75L26 147.635L139 222Z" fill="#EBB22F"/>
<path d="M261 147V0L139 72.6353L261 147Z" fill="#FF4B40"/>
<path d="M489 294V147L375 219.635L489 294Z" fill="#EBB22F"/>
<path d="M375 222V75L261 147.635L375 222Z" fill="white"/>
<path d="M261 294V147L375 219.635L261 294Z" fill="#FF4B40"/>
<path d="M375 222V75L489 147.635L375 222Z" fill="#FF4B40"/>
<path d="M261 147V0L375 72.6353L261 147Z" fill="#01A2A7"/>
<path d="M139 294V441L261 368.365L139 294Z" fill="#36C5EF"/>
<path d="M139 294V441L26 368.365L139 294Z" fill="#01A2A7"/>
<path d="M261 360V516L139 438.918L261 360Z" fill="#EBB22F"/>
<path d="M375 294V441L261 368.365L375 294Z" fill="#36C5EF"/>
<path d="M375 294V441L489 368.365L375 294Z" fill="#01A2A7"/>
<path d="M261 360V516L375 438.918L261 360Z" fill="#FF4B40"/>
<path d="M87.6719 614.781C87.6719 615.969 87.4375 617.094 86.9688 618.156C86.5312 619.219 85.9219 620.141 85.1406 620.922C84.3594 621.703 83.4375 622.328 82.375 622.797C81.3125 623.234 80.1875 623.453 79 623.453C77.8125 623.453 76.6875 623.234 75.625 622.797C74.5938 622.328 73.6875 621.703 72.9062 620.922C72.125 620.141 71.5 619.219 71.0312 618.156C70.5938 617.094 70.375 615.969 70.375 614.781C70.375 613.594 70.5938 612.484 71.0312 611.453C71.5 610.391 72.125 609.469 72.9062 608.688C73.6875 607.906 74.5938 607.297 75.625 606.859C76.6875 606.391 77.8125 606.156 79 606.156C80.1875 606.156 81.3125 606.391 82.375 606.859C83.4375 607.297 84.3594 607.906 85.1406 608.688C85.9219 609.469 86.5312 610.391 86.9688 611.453C87.4375 612.484 87.6719 613.594 87.6719 614.781ZM86.9688 682H71.0781V627.906H86.9688V682ZM162.625 631.234L154.609 634.609C153.984 632.578 153.141 630.719 152.078 629.031C151.047 627.344 149.797 625.906 148.328 624.719C146.891 623.5 145.25 622.562 143.406 621.906C141.562 621.219 139.547 620.875 137.359 620.875C135.016 620.875 132.859 621.266 130.891 622.047C128.953 622.797 127.203 623.844 125.641 625.188C124.109 626.531 122.766 628.094 121.609 629.875C120.453 631.656 119.484 633.562 118.703 635.594C117.922 637.594 117.344 639.672 116.969 641.828C116.594 643.984 116.406 646.094 116.406 648.156C116.406 651.438 116.781 654.703 117.531 657.953C118.312 661.203 119.531 664.125 121.188 666.719C122.875 669.312 125.047 671.422 127.703 673.047C130.359 674.641 133.578 675.438 137.359 675.438C139.359 675.438 141.25 675.109 143.031 674.453C144.812 673.766 146.422 672.844 147.859 671.688C149.328 670.5 150.609 669.109 151.703 667.516C152.797 665.922 153.672 664.203 154.328 662.359L162.438 665.594C161.25 668.562 159.625 671.172 157.562 673.422C155.5 675.641 153.141 677.484 150.484 678.953C147.859 680.422 145.031 681.516 142 682.234C139 682.984 135.969 683.359 132.906 683.359C129.594 683.359 126.406 682.953 123.344 682.141C120.312 681.328 117.484 680.172 114.859 678.672C112.234 677.172 109.844 675.359 107.688 673.234C105.562 671.109 103.734 668.75 102.203 666.156C100.703 663.562 99.5312 660.75 98.6875 657.719C97.875 654.656 97.4688 651.469 97.4688 648.156C97.4688 644.844 97.875 641.672 98.6875 638.641C99.5312 635.578 100.703 632.75 102.203 630.156C103.734 627.531 105.562 625.156 107.688 623.031C109.844 620.906 112.234 619.094 114.859 617.594C117.484 616.094 120.312 614.938 123.344 614.125C126.406 613.312 129.594 612.906 132.906 612.906C136.094 612.906 139.203 613.281 142.234 614.031C145.297 614.781 148.141 615.922 150.766 617.453C153.391 618.953 155.719 620.859 157.75 623.172C159.812 625.453 161.438 628.141 162.625 631.234ZM218.5 632.641L209.594 647.406C209.219 646.156 208.734 644.75 208.141 643.188C207.547 641.625 206.812 640.172 205.938 638.828C205.062 637.453 204.016 636.312 202.797 635.406C201.578 634.469 200.172 634 198.578 634C197.109 634 195.828 634.375 194.734 635.125C193.672 635.875 192.766 636.859 192.016 638.078C191.266 639.266 190.641 640.625 190.141 642.156C189.672 643.656 189.297 645.188 189.016 646.75C188.766 648.281 188.594 649.766 188.5 651.203C188.406 652.609 188.359 653.828 188.359 654.859V682H172.469V627.859H178.562L184.984 640.469C185.859 638.438 186.859 636.578 187.984 634.891C189.109 633.172 190.406 631.703 191.875 630.484C193.344 629.234 195 628.266 196.844 627.578C198.719 626.891 200.828 626.547 203.172 626.547C204.391 626.547 205.75 626.656 207.25 626.875C208.75 627.062 210.219 627.406 211.656 627.906C213.094 628.375 214.422 629 215.641 629.781C216.859 630.562 217.812 631.516 218.5 632.641ZM236.781 656.312C238.719 656.75 240.656 657.094 242.594 657.344C244.531 657.594 246.484 657.719 248.453 657.719C250.516 657.719 252.422 657.531 254.172 657.156C255.953 656.75 257.484 656.094 258.766 655.188C260.078 654.25 261.109 653.016 261.859 651.484C262.609 649.953 262.984 648.047 262.984 645.766C262.984 643.922 262.734 642.234 262.234 640.703C261.734 639.172 260.984 637.859 259.984 636.766C259.016 635.672 257.812 634.828 256.375 634.234C254.938 633.609 253.266 633.297 251.359 633.297C249.578 633.297 247.969 633.625 246.531 634.281C245.125 634.938 243.875 635.828 242.781 636.953C241.719 638.047 240.797 639.328 240.016 640.797C239.266 642.266 238.641 643.797 238.141 645.391C237.641 646.984 237.281 648.594 237.062 650.219C236.844 651.844 236.734 653.375 236.734 654.812C236.734 655.062 236.734 655.312 236.734 655.562C236.734 655.812 236.75 656.062 236.781 656.312ZM275.828 645.625C275.828 647.844 275.469 649.828 274.75 651.578C274.031 653.297 273.047 654.812 271.797 656.125C270.578 657.438 269.156 658.547 267.531 659.453C265.906 660.359 264.172 661.109 262.328 661.703C260.484 662.266 258.578 662.672 256.609 662.922C254.672 663.172 252.781 663.297 250.938 663.297C248.594 663.297 246.281 663.141 244 662.828C241.719 662.484 239.469 661.953 237.25 661.234C237.594 663.297 238.141 665.266 238.891 667.141C239.641 668.984 240.641 670.609 241.891 672.016C243.141 673.391 244.672 674.484 246.484 675.297C248.328 676.109 250.5 676.516 253 676.516C254.656 676.516 256.234 676.266 257.734 675.766C259.234 675.266 260.609 674.562 261.859 673.656C263.109 672.75 264.203 671.672 265.141 670.422C266.109 669.172 266.891 667.781 267.484 666.25L274.328 668.781C273.297 671.25 271.875 673.391 270.062 675.203C268.281 676.984 266.25 678.469 263.969 679.656C261.719 680.812 259.312 681.672 256.75 682.234C254.219 682.797 251.703 683.078 249.203 683.078C245.078 683.078 241.266 682.391 237.766 681.016C234.266 679.609 231.25 677.656 228.719 675.156C226.188 672.656 224.203 669.672 222.766 666.203C221.328 662.734 220.609 658.938 220.609 654.812C220.609 650.688 221.328 646.891 222.766 643.422C224.203 639.953 226.188 636.969 228.719 634.469C231.25 631.969 234.266 630.031 237.766 628.656C241.266 627.25 245.078 626.547 249.203 626.547C251.203 626.547 253.25 626.688 255.344 626.969C257.438 627.25 259.469 627.703 261.438 628.328C263.406 628.922 265.266 629.703 267.016 630.672C268.766 631.641 270.281 632.844 271.562 634.281C272.875 635.688 273.906 637.328 274.656 639.203C275.438 641.078 275.828 643.219 275.828 645.625ZM340.234 682H324.391V675.531C322.516 678.094 320.25 680 317.594 681.25C314.969 682.469 312.078 683.078 308.922 683.078C304.797 683.078 301.109 682.344 297.859 680.875C294.609 679.406 291.859 677.406 289.609 674.875C287.359 672.312 285.641 669.312 284.453 665.875C283.266 662.438 282.672 658.75 282.672 654.812C282.672 650.875 283.266 647.188 284.453 643.75C285.641 640.312 287.359 637.328 289.609 634.797C291.859 632.234 294.609 630.219 297.859 628.75C301.109 627.281 304.797 626.547 308.922 626.547C311.016 626.547 313 626.859 314.875 627.484C316.781 628.109 318.516 629 320.078 630.156C321.672 631.281 323.062 632.656 324.25 634.281C325.469 635.875 326.422 637.656 327.109 639.625L334.141 627.859H340.234V682ZM324.297 654.812C324.297 653.406 324.219 651.922 324.062 650.359C323.938 648.797 323.703 647.25 323.359 645.719C323.016 644.188 322.531 642.734 321.906 641.359C321.312 639.953 320.531 638.719 319.562 637.656C318.625 636.562 317.484 635.703 316.141 635.078C314.797 634.453 313.234 634.141 311.453 634.141C309.672 634.141 308.125 634.469 306.812 635.125C305.5 635.75 304.375 636.609 303.438 637.703C302.5 638.766 301.719 640 301.094 641.406C300.5 642.812 300.031 644.281 299.688 645.812C299.344 647.344 299.094 648.891 298.938 650.453C298.812 651.984 298.75 653.438 298.75 654.812C298.75 656.188 298.812 657.656 298.938 659.219C299.094 660.781 299.344 662.328 299.688 663.859C300.031 665.391 300.5 666.859 301.094 668.266C301.719 669.672 302.5 670.922 303.438 672.016C304.375 673.078 305.5 673.938 306.812 674.594C308.125 675.219 309.672 675.531 311.453 675.531C313.078 675.531 314.516 675.203 315.766 674.547C317.047 673.859 318.156 672.953 319.094 671.828C320.062 670.703 320.875 669.422 321.531 667.984C322.188 666.547 322.719 665.062 323.125 663.531C323.531 662 323.828 660.484 324.016 658.984C324.203 657.453 324.297 656.062 324.297 654.812ZM373.891 682H358V634.141H348.156V627.859H358V607.938H373.891V627.859H390.297V634.141H373.891V682ZM408.25 656.312C410.188 656.75 412.125 657.094 414.062 657.344C416 657.594 417.953 657.719 419.922 657.719C421.984 657.719 423.891 657.531 425.641 657.156C427.422 656.75 428.953 656.094 430.234 655.188C431.547 654.25 432.578 653.016 433.328 651.484C434.078 649.953 434.453 648.047 434.453 645.766C434.453 643.922 434.203 642.234 433.703 640.703C433.203 639.172 432.453 637.859 431.453 636.766C430.484 635.672 429.281 634.828 427.844 634.234C426.406 633.609 424.734 633.297 422.828 633.297C421.047 633.297 419.438 633.625 418 634.281C416.594 634.938 415.344 635.828 414.25 636.953C413.188 638.047 412.266 639.328 411.484 640.797C410.734 642.266 410.109 643.797 409.609 645.391C409.109 646.984 408.75 648.594 408.531 650.219C408.312 651.844 408.203 653.375 408.203 654.812C408.203 655.062 408.203 655.312 408.203 655.562C408.203 655.812 408.219 656.062 408.25 656.312ZM447.297 645.625C447.297 647.844 446.938 649.828 446.219 651.578C445.5 653.297 444.516 654.812 443.266 656.125C442.047 657.438 440.625 658.547 439 659.453C437.375 660.359 435.641 661.109 433.797 661.703C431.953 662.266 430.047 662.672 428.078 662.922C426.141 663.172 424.25 663.297 422.406 663.297C420.062 663.297 417.75 663.141 415.469 662.828C413.188 662.484 410.938 661.953 408.719 661.234C409.062 663.297 409.609 665.266 410.359 667.141C411.109 668.984 412.109 670.609 413.359 672.016C414.609 673.391 416.141 674.484 417.953 675.297C419.797 676.109 421.969 676.516 424.469 676.516C426.125 676.516 427.703 676.266 429.203 675.766C430.703 675.266 432.078 674.562 433.328 673.656C434.578 672.75 435.672 671.672 436.609 670.422C437.578 669.172 438.359 667.781 438.953 666.25L445.797 668.781C444.766 671.25 443.344 673.391 441.531 675.203C439.75 676.984 437.719 678.469 435.438 679.656C433.188 680.812 430.781 681.672 428.219 682.234C425.688 682.797 423.172 683.078 420.672 683.078C416.547 683.078 412.734 682.391 409.234 681.016C405.734 679.609 402.719 677.656 400.188 675.156C397.656 672.656 395.672 669.672 394.234 666.203C392.797 662.734 392.078 658.938 392.078 654.812C392.078 650.688 392.797 646.891 394.234 643.422C395.672 639.953 397.656 636.969 400.188 634.469C402.719 631.969 405.734 630.031 409.234 628.656C412.734 627.25 416.547 626.547 420.672 626.547C422.672 626.547 424.719 626.688 426.812 626.969C428.906 627.25 430.938 627.703 432.906 628.328C434.875 628.922 436.734 629.703 438.484 630.672C440.234 631.641 441.75 632.844 443.031 634.281C444.344 635.688 445.375 637.328 446.125 639.203C446.906 641.078 447.297 643.219 447.297 645.625Z" fill="#2E2E2E"/>
</svg>
